<?xml version="1.0" standalone="no"?>
<!DOCTYPE svg PUBLIC "-//W3C//DTD SVG 20010904//EN"
 "http://www.w3.org/TR/2001/REC-SVG-20010904/DTD/svg10.dtd">
<svg version="1.0" xmlns="http://www.w3.org/2000/svg"
 width="256.000000pt" height="256.000000pt" viewBox="0 0 256.000000 256.000000"
 preserveAspectRatio="xMidYMid meet">
<metadata>
Created by potrace 1.11, written by Peter Selinger 2001-2013
</metadata>
<g transform="translate(0.000000,256.000000) scale(0.100000,-0.100000)"
fill="#000000" stroke="none">
<path d="M1356 2364 c-108 -108 -196 -204 -196 -213 0 -16 185 -211 201 -211
5 0 24 7 43 17 29 14 39 14 65 3 45 -18 81 -65 81 -105 0 -19 -4 -37 -10 -40
-18 -11 -10 -49 16 -76 l27 -28 -164 -166 c-122 -123 -165 -173 -169 -196 -3
-16 -9 -30 -14 -31 -7 0 -304 292 -588 579 -87 88 -97 103 -103 143 -12 85
-16 104 -27 117 -13 16 -269 143 -288 143 -23 0 -160 -142 -160 -166 0 -31
127 -282 148 -293 17 -9 86 -20 131 -20 17 -1 112 -90 363 -341 338 -339 373
-381 303 -368 -18 4 -34 -5 -66 -39 -34 -34 -50 -43 -77 -43 -31 0 -55 -21
-274 -240 -207 -207 -240 -244 -236 -265 6 -31 -20 -56 -51 -50 -18 3 -36 -9
-80 -53 -31 -32 -65 -75 -75 -97 -23 -48 -25 -136 -4 -185 47 -110 188 -163
298 -113 33 15 131 107 370 347 178 179 328 335 332 347 5 11 5 25 2 30 -3 6
15 32 40 59 33 36 46 57 46 79 0 43 16 47 50 11 32 -34 36 -45 20 -55 -21 -13
-9 -43 34 -85 35 -35 43 -48 35 -61 -13 -25 -14 -23 41 -79 50 -50 76 -60 97
-39 19 19 66 6 80 -21 10 -20 10 -29 -2 -47 -8 -12 -15 -29 -15 -38 0 -20 408
-428 448 -449 78 -40 193 -26 259 32 63 56 93 153 70 229 -24 81 -120 190
-158 178 -26 -9 -58 27 -52 57 3 19 -20 47 -120 145 -68 68 -129 123 -136 123
-6 0 -22 -6 -34 -13 -12 -8 -28 -13 -34 -12 -7 2 -17 3 -23 4 -23 3 -31 41
-16 73 9 17 16 35 16 40 0 5 -21 31 -47 59 -38 40 -52 50 -75 47 -21 -2 -38 7
-73 40 -50 47 -52 48 -81 27 -19 -13 -24 -11 -54 20 -36 37 -34 55 5 47 22 -4
48 18 190 159 91 90 168 166 170 168 2 2 20 -10 40 -28 40 -34 51 -33 94 13
l24 25 45 -37 c62 -50 135 -125 187 -192 46 -60 125 -185 125 -199 0 -16 29
-33 47 -27 26 8 69 99 89 187 30 137 -47 410 -106 374 -14 -9 -43 43 -37 64 3
13 -8 34 -34 62 l-39 43 25 26 c14 14 25 35 25 46 0 12 -71 90 -185 204 l-185
184 -32 -13 c-60 -24 -116 -8 -148 44 -24 38 -25 63 -6 101 9 17 12 33 6 43
-16 29 -187 191 -202 191 -9 0 -104 -88 -212 -196z"/>
</g>
</svg>
